<?xml version="1.0" encoding="UTF-8" standalone="no"?>
<svg
   xmlns:dc="http://purl.org/dc/elements/1.1/"
   xmlns:cc="http://creativecommons.org/ns#"
   xmlns:rdf="http://www.w3.org/1999/02/22-rdf-syntax-ns#"
   xmlns:svg="http://www.w3.org/2000/svg"
   xmlns="http://www.w3.org/2000/svg"
   xmlns:sodipodi="http://sodipodi.sourceforge.net/DTD/sodipodi-0.dtd"
   xmlns:inkscape="http://www.inkscape.org/namespaces/inkscape"
   inkscape:version="1.0beta2 (2b71d25, 2019-12-03)"
   sodipodi:docname="movie-videos.svg"
   xml:space="preserve"
   style="enable-background:new 0 0 122.88 95.8"
   viewBox="0 0 122.88 95.8"
   y="0px"
   x="0px"
   id="Layer_1"
   version="1.1"><metadata
     id="metadata1022"><rdf:RDF><cc:Work
         rdf:about=""><dc:format>image/svg+xml</dc:format><dc:type
           rdf:resource="http://purl.org/dc/dcmitype/StillImage" /></cc:Work></rdf:RDF></metadata><defs
     id="defs1020" /><sodipodi:namedview
     inkscape:current-layer="Layer_1"
     inkscape:window-maximized="1"
     inkscape:window-y="23"
     inkscape:window-x="0"
     inkscape:cy="52.761824"
     inkscape:cx="59.782559"
     inkscape:zoom="9.0501041"
     showgrid="false"
     id="namedview1018"
     inkscape:window-height="1075"
     inkscape:window-width="1792"
     inkscape:pageshadow="2"
     inkscape:pageopacity="0"
     guidetolerance="10"
     gridtolerance="10"
     objecttolerance="10"
     borderopacity="1"
     inkscape:document-rotation="0"
     bordercolor="#666666"
     pagecolor="#ffffff" /><g
     style="fill:#000000;fill-opacity:1"
     id="g1015"><path
       style="fill:#000000;fill-opacity:1"
       id="path1013"
       d="M12.14,0H32.8h29.43h28.8h19.71c3.34,0,6.38,1.37,8.58,3.56c2.2,2.2,3.56,5.24,3.56,8.58v7.13v57.25v7.09 c0,3.34-1.37,6.38-3.56,8.58c-2.2,2.2-5.24,3.56-8.58,3.56h-19.2c-0.16,0.03-0.33,0.04-0.51,0.04c-0.17,0-0.34-0.01-0.51-0.04 H62.74c-0.16,0.03-0.33,0.04-0.51,0.04c-0.17,0-0.34-0.01-0.51-0.04H33.31c-0.16,0.03-0.33,0.04-0.51,0.04 c-0.17,0-0.34-0.01-0.51-0.04H12.14c-3.34,0-6.38-1.37-8.58-3.56S0,86.95,0,83.61v-7.09V19.27v-7.13C0,8.8,1.37,5.76,3.56,3.56 C5.76,1.37,8.8,0,12.14,0L12.14,0z M55.19,31.24l20.53,14.32c0.32,0.2,0.61,0.48,0.84,0.81c0.92,1.33,0.58,3.14-0.74,4.06 L55.37,64.57c-0.5,0.41-1.15,0.66-1.85,0.66c-1.62,0-2.93-1.31-2.93-2.93V33.63h0.01c0-0.58,0.17-1.16,0.52-1.67 C52.05,30.64,53.87,30.32,55.19,31.24L55.19,31.24z M93.95,79.45V89.9h16.78c1.73,0,3.3-0.71,4.44-1.85 c1.14-1.14,1.85-2.71,1.85-4.44v-4.16H93.95L93.95,79.45z M88.1,89.9V79.45H65.16V89.9H88.1L88.1,89.9z M59.31,89.9V79.45H35.73 V89.9H59.31L59.31,89.9z M29.87,89.9V79.45H5.85v4.16c0,1.73,0.71,3.3,1.85,4.44c1.14,1.14,2.71,1.85,4.44,1.85H29.87L29.87,89.9z M5.85,73.6H32.8h29.43h28.8h26V22.2h-26h-28.8H32.8H5.85V73.6L5.85,73.6z M88.1,16.35V5.85H65.16v10.49H88.1L88.1,16.35z M93.95,5.85v10.49h23.07v-4.2c0-1.73-0.71-3.3-1.85-4.44c-1.14-1.14-2.71-1.85-4.44-1.85H93.95L93.95,5.85z M59.31,16.35V5.85 H35.73v10.49H59.31L59.31,16.35z M29.87,16.35V5.85H12.14c-1.73,0-3.3,0.71-4.44,1.85c-1.14,1.14-1.85,2.71-1.85,4.44v4.2H29.87 L29.87,16.35z" /></g></svg>
